<?xml version="1.0" encoding="UTF-8" standalone="no"?>
<svg
   xmlns:i="http://ns.adobe.com/AdobeIllustrator/10.0/"
   xmlns:dc="http://purl.org/dc/elements/1.1/"
   xmlns:cc="http://creativecommons.org/ns#"
   xmlns:rdf="http://www.w3.org/1999/02/22-rdf-syntax-ns#"
   xmlns:svg="http://www.w3.org/2000/svg"
   xmlns="http://www.w3.org/2000/svg"
   xmlns:sodipodi="http://sodipodi.sourceforge.net/DTD/sodipodi-0.dtd"
   xmlns:inkscape="http://www.inkscape.org/namespaces/inkscape"
   id="svg4587"
   version="1.1"
   viewBox="0 0 32 24.15051"
   height="24.150509"
   width="32"
   sodipodi:docname="anvil-gold-lh.svg"
   inkscape:version="0.92.4 (unknown)">
  <sodipodi:namedview
     pagecolor="#ffffff"
     bordercolor="#666666"
     borderopacity="1"
     objecttolerance="10"
     gridtolerance="10"
     guidetolerance="10"
     inkscape:pageopacity="0"
     inkscape:pageshadow="2"
     inkscape:window-width="1571"
     inkscape:window-height="1023"
     id="namedview24664"
     showgrid="false"
     inkscape:zoom="4.6530692"
     inkscape:cx="-17.869322"
     inkscape:cy="25.359604"
     inkscape:window-x="212"
     inkscape:window-y="25"
     inkscape:window-maximized="0"
     inkscape:current-layer="svg4587"
     fit-margin-top="0"
     fit-margin-left="0"
     fit-margin-right="0"
     fit-margin-bottom="0" />
  <defs
     id="defs4581" />
  <metadata
     id="metadata4584">
    <rdf:RDF>
      <cc:Work
         rdf:about="">
        <dc:format>image/svg+xml</dc:format>
        <dc:type
           rdf:resource="http://purl.org/dc/dcmitype/StillImage" />
        <dc:title></dc:title>
      </cc:Work>
    </rdf:RDF>
  </metadata>
  <g
     transform="matrix(0.47616096,0,0,0.47616096,-28.994374,-73.91148)"
     id="layer1">
    <g
       id="g4004"
       transform="matrix(0.18406937,0,0,0.18406937,60.89196,155.22373)"
       style="display:inline;overflow:visible">
      <g
         transform="matrix(-1,0,0,1,365.10238,0)"
         id="g4018">
        <path
           style="clip-rule:evenodd;fill:#fdb302;fill-opacity:1;fill-rule:evenodd"
           id="path3164"
           i:knockout="Off"
           d="M 0,34.344 0.72,53.46 C 9.396,60.732 18,68.04 26.928,75.78 35.892,83.52 45.792,90 53.856,99.504 c 7.884,9.396 16.992,18 20.52,32.616 3.384,14.651 3.384,32.509 0,54.54 l -10.98,18.756 -0.36,21.961 20.556,8.855 c 5.796,-2.16 12.6,-3.205 20.556,-2.844 7.92,0.215 19.62,1.332 26.892,4.607 7.2,3.203 12.24,10.297 15.948,14.904 3.564,4.607 5.508,8.604 5.688,12.383 l 23.724,10.262 68.004,-68.689 -0.721,-23.4 v 0.002 c -3.312,-1.586 -6.336,-3.24 -9.216,-4.969 -2.952,-1.801 -5.616,-3.637 -8.136,-5.652 24.3,1.801 44.496,2.52 61.992,1.764 17.352,-0.9 29.592,-3.275 41.436,-6.012 11.7,-2.699 22.393,-7.309 28.332,-9.936 5.796,-2.701 7.813,-4.176 6.732,-6.373 -1.225,-2.412 -3.168,-3.059 -13.464,-7.775 -10.62,-4.896 -35.028,-15.3 -48.528,-20.916 -13.428,-5.616 -23.544,-9.612 -31.176,-12.384 v -9.576 L 249.01,92.808 V 78.624 L 46.404,0 C 30.96,11.448 15.48,22.896 0,34.344 Z"
           inkscape:connector-curvature="0" />
        <path
           style="clip-rule:evenodd;fill:#fefeba;fill-opacity:1;fill-rule:evenodd"
           id="path3166"
           i:knockout="Off"
           d="m 3.888,37.188 205.452,81.108 37.872,-37.548 c -7.668,7.128 -14.688,12.528 -21.6,16.632 -6.84,4.032 -9.721,7.632 -19.477,7.452 -9.936,-0.396 -16.164,-1.476 -39.672,-9.216 C 142.56,87.624 92.16,68.328 64.836,58.428 37.548,48.636 17.604,41.652 3.888,37.188 Z"
           inkscape:connector-curvature="0" />
        <path
           style="clip-rule:evenodd;fill:#fefeba;fill-opacity:1;fill-rule:evenodd"
           id="path3168"
           i:knockout="Off"
           d="m 249.336,96.336 c -9.54,9.144 -16.164,15.876 -20.16,20.196 -3.96,4.284 -5.328,3.852 -3.563,5.652 1.62,1.692 9.216,4.392 13.464,4.608 4.176,0.072 7.812,-1.224 11.34,-3.888 l -6.732,8.496 -27.972,-8.136 27.612,-26.208 c 1.979,-0.216 3.995,-0.468 6.011,-0.72 z"
           inkscape:connector-curvature="0" />
        <path
           style="clip-rule:evenodd;fill:#fefeba;fill-opacity:1;fill-rule:evenodd"
           id="path3170"
           i:knockout="Off"
           d="m 261.396,127.512 c -6.12,-0.54 -9.648,0.54 -11.7,2.808 -2.196,2.304 -3.097,7.993 -1.044,10.657 2.016,2.52 4.248,2.555 13.104,4.572 8.856,1.979 22.933,5.508 39.313,7.092 16.344,1.439 50.184,2.627 57.384,1.764 6.804,-0.9 -3.888,-3.527 -15.948,-7.057 -12.24,-3.707 -42.228,-10.835 -55.944,-14.184 -13.609,-3.348 -19.081,-5.184 -25.165,-5.652 z"
           inkscape:connector-curvature="0" />
        <path
           style="clip-rule:evenodd;fill:#a53c2e;fill-opacity:1;fill-rule:evenodd"
           id="path3172"
           i:knockout="Off"
           d="M 63.036,46.044 79.344,34.704 63.036,27.972 47.124,39.672 Z"
           inkscape:connector-curvature="0" />
        <path
           style="clip-rule:evenodd;fill:#a53c2e;fill-opacity:1;fill-rule:evenodd"
           id="path3174"
           i:knockout="Off"
           d="m 249.012,79.668 -38.987,38.628 c -0.937,10.836 -1.297,20.052 -0.685,28.333 0.468,8.172 3.061,18.863 3.888,20.555 0.757,1.512 0.505,-3.816 1.045,-10.98 0.432,-7.234 1.079,-17.676 1.8,-31.895 l 31.859,-31.86 c 0.36,-4.249 0.72,-8.497 1.08,-12.781 z"
           inkscape:connector-curvature="0" />
        <path
           style="clip-rule:evenodd;fill:#a53c2e;fill-opacity:1;fill-rule:evenodd"
           id="path3176"
           i:knockout="Off"
           d="m 249.696,124.308 -6.372,7.812 c -0.216,7.487 0.072,12.312 0.72,14.868 0.612,2.34 2.412,2.34 3.168,0 0.648,-2.412 -0.432,-10.44 1.08,-13.824 1.332,-3.456 7.2,-4.932 7.452,-6.372 0.216,-1.512 -1.8,-2.34 -6.048,-2.484 z"
           inkscape:connector-curvature="0" />
        <path
           style="clip-rule:evenodd;fill:#a53c2e;fill-opacity:1;fill-rule:evenodd"
           id="path3178"
           i:knockout="Off"
           d="m 269.172,103.428 c -4.14,4.788 -6.264,7.812 -6.372,9.216 -0.107,1.296 4.104,-0.864 5.688,-1.08 1.476,-0.288 2.7,-0.36 3.527,-0.36 l -0.72,-9.216 c -0.683,0.468 -1.403,0.936 -2.123,1.44 z"
           inkscape:connector-curvature="0" />
        <path
           style="clip-rule:evenodd;fill:#a53c2e;fill-opacity:1;fill-rule:evenodd"
           id="path3180"
           i:knockout="Off"
           d="m 170.352,214.633 c 0.216,-4.609 0.54,-8.605 2.484,-13.105 1.728,-4.535 3.564,-9.143 8.856,-13.824 5.4,-4.859 22.428,-13.211 23.041,-14.508 0.252,-1.26 -14.257,3.744 -20.196,7.092 -5.94,3.313 -11.592,7.236 -14.868,12.744 -3.276,5.4 -4.86,13.861 -4.608,19.836 0.324,5.869 4.968,15.229 6.012,15.59 0.755,0.179 -0.973,-9.29 -0.721,-13.825 z"
           inkscape:connector-curvature="0" />
        <path
           style="clip-rule:evenodd;fill:#a53c2e;fill-opacity:1;fill-rule:evenodd"
           id="path3182"
           i:knockout="Off"
           d="m 225.972,174.24 16.633,9.936 -51.337,53.461 c -0.756,-7.885 0,-14.797 2.124,-20.881 2.124,-6.119 8.028,-11.268 10.62,-15.588 2.484,-4.428 1.404,-7.848 4.248,-10.26 2.772,-2.447 10.225,-2.52 12.061,-4.248 1.655,-1.873 -2.772,-4.32 -1.765,-6.373 0.9,-2.088 3.42,-4.103 7.416,-6.047 z"
           inkscape:connector-curvature="0" />
        <path
           style="clip-rule:evenodd;fill:#a53c2e;fill-opacity:1;fill-rule:evenodd"
           id="path3184"
           i:knockout="Off"
           d="m 44.28,14.148 c 0,2.556 3.42,4.608 7.632,4.608 4.176,0 7.596,-2.052 7.596,-4.608 0,-2.52 -3.42,-4.608 -7.596,-4.608 -4.212,0 -7.632,2.088 -7.632,4.608 z"
           inkscape:connector-curvature="0" />
        <path
           style="clip-rule:evenodd;fill:#a53c2e;fill-opacity:1;fill-rule:evenodd"
           id="path3186"
           i:knockout="Off"
           d="m 65.232,207.035 c 5.328,-8.711 10.26,-14.471 15.084,-17.135 4.716,-2.701 7.56,0.539 13.392,0.828 5.76,0.18 20.844,-1.908 21.348,0.396 0.324,2.34 -14.436,9.07 -18.864,13.391 -4.5,4.213 -7.092,8.029 -7.92,11.736 -7.668,-3.06 -15.336,-6.118 -23.04,-9.216 z"
           inkscape:connector-curvature="0" />
      </g>
    </g>
  </g>
</svg>
